<svg width="32" height="46" viewBox="0 0 32 46" fill="none" xmlns="http://www.w3.org/2000/svg">
<path d="M4.74219 43V36.9688H5.64844C6.05208 36.9688 6.3737 37 6.61328 37.0625C6.85547 37.125 7.0599 37.2305 7.22656 37.3789C7.39583 37.5326 7.52995 37.724 7.62891 37.9531C7.73047 38.1849 7.78125 38.4193 7.78125 38.6562C7.78125 39.0885 7.61589 39.4544 7.28516 39.7539C7.60547 39.8633 7.85807 40.0547 8.04297 40.3281C8.23047 40.599 8.32422 40.9141 8.32422 41.2734C8.32422 41.7448 8.15755 42.1432 7.82422 42.4688C7.6237 42.6693 7.39844 42.8086 7.14844 42.8867C6.875 42.9622 6.53255 43 6.12109 43H4.74219ZM5.65234 39.5586H5.9375C6.27604 39.5586 6.52344 39.4844 6.67969 39.3359C6.83854 39.1849 6.91797 38.9635 6.91797 38.6719C6.91797 38.388 6.83724 38.1732 6.67578 38.0273C6.51432 37.8789 6.27995 37.8047 5.97266 37.8047H5.65234V39.5586ZM5.65234 42.1445H6.21484C6.6263 42.1445 6.92839 42.0638 7.12109 41.9023C7.32422 41.7279 7.42578 41.5065 7.42578 41.2383C7.42578 40.9779 7.32812 40.7591 7.13281 40.582C6.94271 40.4076 6.60286 40.3203 6.11328 40.3203H5.65234V42.1445ZM10.1875 39.1953V43H9.30859V39.1953H10.1875ZM9.17578 37.6133C9.17578 37.4596 9.23177 37.3268 9.34375 37.2148C9.45573 37.1029 9.58984 37.0469 9.74609 37.0469C9.90495 37.0469 10.0404 37.1029 10.1523 37.2148C10.2643 37.3242 10.3203 37.4583 10.3203 37.6172C10.3203 37.776 10.2643 37.9115 10.1523 38.0234C10.043 38.1354 9.90885 38.1914 9.75 38.1914C9.59115 38.1914 9.45573 38.1354 9.34375 38.0234C9.23177 37.9115 9.17578 37.7747 9.17578 37.6133ZM14.2617 39.3594V40.5273C14.0612 40.2826 13.8815 40.1146 13.7227 40.0234C13.5664 39.9297 13.3828 39.8828 13.1719 39.8828C12.8411 39.8828 12.5664 39.9987 12.3477 40.2305C12.1289 40.4622 12.0195 40.7526 12.0195 41.1016C12.0195 41.4583 12.125 41.7513 12.3359 41.9805C12.5495 42.2096 12.8216 42.3242 13.1523 42.3242C13.3633 42.3242 13.5495 42.2786 13.7109 42.1875C13.8672 42.099 14.0508 41.9271 14.2617 41.6719V42.832C13.9049 43.0169 13.5482 43.1094 13.1914 43.1094C12.6029 43.1094 12.1107 42.9193 11.7148 42.5391C11.319 42.1562 11.1211 41.681 11.1211 41.1133C11.1211 40.5456 11.3216 40.0664 11.7227 39.6758C12.1237 39.2852 12.6159 39.0898 13.1992 39.0898C13.5742 39.0898 13.9284 39.1797 14.2617 39.3594ZM16.3125 42.293L14.6016 39.1953H15.6211L16.7852 41.3828L17.8711 39.1953H18.8633L15.832 45.0703H14.8281L16.3125 42.293ZM22.2617 39.3594V40.5273C22.0612 40.2826 21.8815 40.1146 21.7227 40.0234C21.5664 39.9297 21.3828 39.8828 21.1719 39.8828C20.8411 39.8828 20.5664 39.9987 20.3477 40.2305C20.1289 40.4622 20.0195 40.7526 20.0195 41.1016C20.0195 41.4583 20.125 41.7513 20.3359 41.9805C20.5495 42.2096 20.8216 42.3242 21.1523 42.3242C21.3633 42.3242 21.5495 42.2786 21.7109 42.1875C21.8672 42.099 22.0508 41.9271 22.2617 41.6719V42.832C21.9049 43.0169 21.5482 43.1094 21.1914 43.1094C20.6029 43.1094 20.1107 42.9193 19.7148 42.5391C19.319 42.1562 19.1211 41.681 19.1211 41.1133C19.1211 40.5456 19.3216 40.0664 19.7227 39.6758C20.1237 39.2852 20.6159 39.0898 21.1992 39.0898C21.5742 39.0898 21.9284 39.1797 22.2617 39.3594ZM23.9922 36.4023V43H23.1133V36.4023H23.9922ZM28.5703 41.3047H25.8438C25.8672 41.6172 25.9688 41.8659 26.1484 42.0508C26.3281 42.2331 26.5586 42.3242 26.8398 42.3242C27.0586 42.3242 27.2396 42.2721 27.3828 42.168C27.5234 42.0638 27.6836 41.8711 27.8633 41.5898L28.6055 42.0039C28.4909 42.1992 28.3698 42.3672 28.2422 42.5078C28.1146 42.6458 27.9779 42.7604 27.832 42.8516C27.6862 42.9401 27.5286 43.0052 27.3594 43.0469C27.1901 43.0885 27.0065 43.1094 26.8086 43.1094C26.2409 43.1094 25.7852 42.9271 25.4414 42.5625C25.0977 42.1953 24.9258 41.7083 24.9258 41.1016C24.9258 40.5 25.0924 40.013 25.4258 39.6406C25.7617 39.2734 26.207 39.0898 26.7617 39.0898C27.3216 39.0898 27.7643 39.2682 28.0898 39.625C28.4128 39.9792 28.5742 40.4701 28.5742 41.0977L28.5703 41.3047ZM27.668 40.5859C27.5456 40.1172 27.25 39.8828 26.7812 39.8828C26.6745 39.8828 26.5742 39.8997 26.4805 39.9336C26.3867 39.9648 26.3008 40.0117 26.2227 40.0742C26.1471 40.1341 26.082 40.207 26.0273 40.293C25.9727 40.3789 25.931 40.4766 25.9023 40.5859H27.668Z" fill="currentColor"/>
<circle cx="16" cy="16" r="16" fill="currentColor"/>
<path d="M9 24C7.58333 24 6.39583 23.5208 5.4375 22.5625C4.47917 21.6042 4 20.4167 4 19C4 17.5833 4.4875 16.3958 5.4625 15.4375C6.4375 14.4792 7.61667 14 9 14C10.2833 14 11.3625 14.3833 12.2375 15.15C13.1125 15.9167 13.6667 16.8667 13.9 18H14.55L12.75 13H11V11H16V13H14.9L15.25 14H20.05L18.6 10H16V8H18.6C19.0333 8 19.4208 8.11667 19.7625 8.35C20.1042 8.58333 20.35 8.9 20.5 9.3L22.2 13.95H23C24.3833 13.95 25.5625 14.4375 26.5375 15.4125C27.5125 16.3875 28 17.5667 28 18.95C28 20.35 27.5167 21.5417 26.55 22.525C25.5833 23.5083 24.4 24 23 24C21.8 24 20.7458 23.625 19.8375 22.875C18.9292 22.125 18.35 21.1667 18.1 20H13.9C13.6667 21.15 13.1 22.1042 12.2 22.8625C11.3 23.6208 10.2333 24 9 24ZM9 22C9.68333 22 10.2708 21.8125 10.7625 21.4375C11.2542 21.0625 11.6 20.5833 11.8 20H9V18H11.8C11.6 17.4 11.2542 16.9167 10.7625 16.55C10.2708 16.1833 9.68333 16 9 16C8.15 16 7.4375 16.2875 6.8625 16.8625C6.2875 17.4375 6 18.15 6 19C6 19.8333 6.2875 20.5417 6.8625 21.125C7.4375 21.7083 8.15 22 9 22ZM16.7 18H18.1C18.1833 17.6167 18.2958 17.2583 18.4375 16.925C18.5792 16.5917 18.7667 16.2833 19 16H15.95L16.7 18ZM23 22C23.85 22 24.5625 21.7083 25.1375 21.125C25.7125 20.5417 26 19.8333 26 19C26 18.15 25.7125 17.4375 25.1375 16.8625C24.5625 16.2875 23.85 16 23 16H22.9L23.9 18.65L22 19.35L21.05 16.7C20.7167 16.9833 20.4583 17.3167 20.275 17.7C20.0917 18.0833 20 18.5167 20 19C20 19.8333 20.2875 20.5417 20.8625 21.125C21.4375 21.7083 22.15 22 23 22Z" fill="white"/>
</svg>
