<svg width="12" height="12" viewBox="0 0 12 12" fill="none" xmlns="http://www.w3.org/2000/svg">
<path d="M4.2004 9.83036C4.2004 9.83036 6.34707 11.6099 8.73258 11.9548C8.73258 11.9548 10.4023 12.3137 11.5502 11.0073C11.5502 11.0073 12.3254 10.4477 11.6096 9.58649L9.79078 7.87868C9.79078 7.87868 9.35864 7.4049 8.65742 7.82149L7.94164 8.496C7.718 8.69672 7.39011 8.7399 7.13677 8.58235C6.3319 8.10856 4.64703 6.96024 3.69238 5.26636C3.54329 5.00788 3.58813 4.70679 3.79663 4.5055L4.28876 4.03171C4.28876 4.03171 5.10878 3.34262 4.30391 2.53921L2.51477 0.83141C2.51477 0.83141 1.87354 0.400799 1.23231 0.931773C1.23231 0.931773 -0.317975 2.18043 0.188649 4.27633C0.188649 4.27633 0.233494 6.50115 4.18454 9.83106L4.2004 9.83036Z" fill="currentColor"/>
</svg>
