<svg width="40" height="54" viewBox="0 0 40 54" fill="none" xmlns="http://www.w3.org/2000/svg">
<path d="M40 20C40 25.9735 33.2291 35 33.2291 35L20.8171 52.5919C20.4187 53.1566 19.5813 53.1566 19.1829 52.5919L6.77088 35C6.77088 35 0 25.9735 0 20C0 8.9543 8.9543 0 20 0C31.0457 0 40 8.9543 40 20Z" fill="#1FC0DD"/>
<path d="M11.25 28.75C9.47917 28.75 7.99479 28.151 6.79688 26.9531C5.59896 25.7552 5 24.2708 5 22.5C5 20.7292 5.60938 19.2448 6.82812 18.0469C8.04688 16.849 9.52083 16.25 11.25 16.25C12.8542 16.25 14.2031 16.7292 15.2969 17.6875C16.3906 18.6458 17.0833 19.8333 17.375 21.25H18.1875L15.9375 15H13.75V12.5H20V15H18.625L19.0625 16.25H25.0625L23.25 11.25H20V8.75H23.25C23.7917 8.75 24.276 8.89583 24.7031 9.1875C25.1302 9.47917 25.4375 9.875 25.625 10.375L27.75 16.1875H28.75C30.4792 16.1875 31.9531 16.7969 33.1719 18.0156C34.3906 19.2344 35 20.7083 35 22.4375C35 24.1875 34.3958 25.6771 33.1875 26.9062C31.9792 28.1354 30.5 28.75 28.75 28.75C27.25 28.75 25.9323 28.2812 24.7969 27.3438C23.6615 26.4062 22.9375 25.2083 22.625 23.75H17.375C17.0833 25.1875 16.375 26.3802 15.25 27.3281C14.125 28.276 12.7917 28.75 11.25 28.75ZM11.25 26.25C12.1042 26.25 12.8385 26.0156 13.4531 25.5469C14.0677 25.0781 14.5 24.4792 14.75 23.75H11.25V21.25H14.75C14.5 20.5 14.0677 19.8958 13.4531 19.4375C12.8385 18.9792 12.1042 18.75 11.25 18.75C10.1875 18.75 9.29688 19.1094 8.57812 19.8281C7.85938 20.5469 7.5 21.4375 7.5 22.5C7.5 23.5417 7.85938 24.4271 8.57812 25.1562C9.29688 25.8854 10.1875 26.25 11.25 26.25ZM20.875 21.25H22.625C22.7292 20.7708 22.8698 20.3229 23.0469 19.9062C23.224 19.4896 23.4583 19.1042 23.75 18.75H19.9375L20.875 21.25ZM28.75 26.25C29.8125 26.25 30.7031 25.8854 31.4219 25.1562C32.1406 24.4271 32.5 23.5417 32.5 22.5C32.5 21.4375 32.1406 20.5469 31.4219 19.8281C30.7031 19.1094 29.8125 18.75 28.75 18.75H28.625L29.875 22.0625L27.5 22.9375L26.3125 19.625C25.8958 19.9792 25.5729 20.3958 25.3438 20.875C25.1146 21.3542 25 21.8958 25 22.5C25 23.5417 25.3594 24.4271 26.0781 25.1562C26.7969 25.8854 27.6875 26.25 28.75 26.25Z" fill="white"/>
</svg>
