<svg width="14" height="14" viewBox="0 0 14 14" fill="none" xmlns="http://www.w3.org/2000/svg">
<path d="M13.4732 12.5266L10.9999 10.0733C11.9599 8.87621 12.4249 7.3568 12.2991 5.82747C12.1733 4.29814 11.4663 2.87512 10.3236 1.85103C9.18079 0.82694 7.68908 0.27961 6.15516 0.321583C4.62123 0.363557 3.16169 0.991644 2.07664 2.0767C0.991583 3.16175 0.363496 4.6213 0.321522 6.15522C0.279549 7.68914 0.826879 9.18085 1.85097 10.3236C2.87506 11.4664 4.29808 12.1733 5.82741 12.2991C7.35674 12.4249 8.87615 11.96 10.0732 10.9999L12.5265 13.4533C12.5885 13.5158 12.6623 13.5654 12.7435 13.5992C12.8247 13.633 12.9119 13.6505 12.9999 13.6505C13.0879 13.6505 13.175 13.633 13.2563 13.5992C13.3375 13.5654 13.4112 13.5158 13.4732 13.4533C13.5934 13.329 13.6605 13.1628 13.6605 12.9899C13.6605 12.817 13.5934 12.6509 13.4732 12.5266ZM6.33321 10.9999C5.41023 10.9999 4.50798 10.7262 3.74055 10.2135C2.97312 9.70068 2.37498 8.97185 2.02177 8.11913C1.66856 7.2664 1.57615 6.32809 1.75621 5.42285C1.93627 4.5176 2.38073 3.68608 3.03338 3.03344C3.68602 2.38079 4.51754 1.93634 5.42279 1.75627C6.32803 1.57621 7.26634 1.66862 8.11907 2.02183C8.97179 2.37504 9.70062 2.97318 10.2134 3.74061C10.7262 4.50804 10.9999 5.41029 10.9999 6.33327C10.9999 7.57095 10.5082 8.75793 9.63304 9.6331C8.75787 10.5083 7.57089 10.9999 6.33321 10.9999Z" fill="currentColor"/>
</svg>
