<svg width="18" height="20" viewBox="0 0 18 20" fill="none" xmlns="http://www.w3.org/2000/svg">
<path d="M13.8698 12.6129C12.8933 12.6129 12.0487 13.0352 11.4681 13.7214L6.98127 11.3988C7.19241 10.9765 7.29799 10.5015 7.29799 10C7.29799 9.49854 7.16602 9.02346 6.98127 8.60117L11.4681 6.27859C12.0487 6.96481 12.9197 7.3871 13.8698 7.3871C15.6118 7.3871 17.0634 5.96188 17.0634 4.19355C17.0634 2.45161 15.6382 1 13.8698 1C12.1015 1 10.6763 2.5044 10.6763 4.24633C10.6763 4.66862 10.7555 5.03812 10.8874 5.40763L6.32145 7.7566C5.7408 7.17595 4.94901 6.83285 4.07804 6.83285C2.3625 6.83285 0.910889 8.28446 0.910889 10.0264C0.910889 11.7683 2.33611 13.2199 4.10444 13.2199C4.9754 13.2199 5.76719 12.8768 6.34784 12.2962L10.9138 14.6452C10.7819 15.0147 10.7027 15.3842 10.7027 15.8065C10.7027 17.5484 12.1279 19 13.8962 19C15.6646 19 17.0898 17.5748 17.0898 15.8065C17.0898 14.0381 15.6118 12.6129 13.8698 12.6129ZM13.8698 2.1349C15.0311 2.1349 16.0077 3.08504 16.0077 4.27273C16.0077 5.43402 15.0575 6.41056 13.8698 6.41056C12.6821 6.41056 11.732 5.43402 11.732 4.24633C11.732 3.08504 12.6821 2.1349 13.8698 2.1349ZM4.10444 12.1642C2.94315 12.1642 1.96661 11.2141 1.96661 10.0264C1.96661 8.8651 2.91675 7.88856 4.10444 7.88856C5.26573 7.88856 6.24227 8.83871 6.24227 10.0264C6.24227 11.1877 5.26573 12.1642 4.10444 12.1642ZM13.8698 17.9179C12.7085 17.9179 11.732 16.9677 11.732 15.7801C11.732 14.5924 12.6821 13.6422 13.8698 13.6422C15.0575 13.6422 16.0077 14.5924 16.0077 15.7801C16.0077 16.9677 15.0311 17.9179 13.8698 17.9179Z" fill="#1FC0DD" stroke="#1FC0DD"/>
</svg>
