<svg width="12" height="12" viewBox="0 0 12 12" fill="none" xmlns="http://www.w3.org/2000/svg">
<path d="M8.65547 12C8.7972 12 8.92095 11.8766 8.92095 11.7353C8.92095 11.1176 8.42524 10.6234 7.80578 10.6234H7.5403L7.43383 9.97058H4.53156L4.42509 10.6234H4.15961C3.54014 10.6234 3.04443 11.1176 3.04443 11.7353C3.04443 11.8766 3.16819 12 3.30992 12H8.65547Z" fill="currentColor"/>
<path d="M1.32742 9.61768H10.6726C11.3986 9.61768 12 9.01796 12 8.29414V1.32353C12 0.599719 11.3986 0 10.6726 0H1.32742C0.60148 0 0 0.599719 0 1.32353V8.29414C0 9.01796 0.60217 9.61768 1.32742 9.61768ZM0.530967 1.32353C0.530967 0.882356 0.884945 0.529413 1.32742 0.529413H10.6726C11.1151 0.529413 11.4691 0.882356 11.4691 1.32353V6.81214H0.530967V1.32353Z" fill="currentColor"/>
</svg>
